<?xml version="1.0" encoding="utf-8"?>
<!-- Generator: Adobe Illustrator 27.0.1, SVG Export Plug-In . SVG Version: 6.00 Build 0)  -->
<svg version="1.1" id="Ebene_1" xmlns="http://www.w3.org/2000/svg" xmlns:xlink="http://www.w3.org/1999/xlink" x="0px" y="0px"
	 viewBox="0 0 841.89 595.28" style="enable-background:new 0 0 841.89 595.28;" xml:space="preserve">
<style type="text/css">
	.st0{fill:#3C3C3B;}
	.st1{fill:none;}
	.st2{fill:url(#SVGID_1_);}
	.st3{fill:url(#SVGID_00000176756338364975749840000016292856576134992028_);}
	.st4{fill:url(#SVGID_00000160156342770267371090000015144562900688272000_);}
	.st5{fill:url(#SVGID_00000168831827411565220480000003456322482461384876_);}
</style>
<g>
	<g>
		<path class="st0" d="M98.16,346.42l14.37-17.3c6.74,5.42,15.25,9.24,22.28,9.24c7.62,0,10.85-2.49,10.85-6.74
			c0-4.55-4.84-6.01-12.9-9.24l-11.88-4.99c-10.26-4.1-19.2-12.75-19.2-26.53c0-16.27,14.66-29.61,35.48-29.61
			c10.85,0,22.87,4.1,31.66,12.75l-12.61,15.83c-6.45-4.55-12.02-6.89-19.06-6.89c-6.16,0-9.97,2.2-9.97,6.45
			c0,4.54,5.42,6.16,14.07,9.53l11.58,4.55c11.88,4.69,18.62,12.9,18.62,26.09c0,16.13-13.49,30.49-37.24,30.49
			C122.21,360.05,108.42,355.66,98.16,346.42z"/>
		<path class="st0" d="M186.73,263h25.8l21.11,42.52l9.09,21.4h0.59c-1.17-10.26-3.23-24.63-3.23-36.36V263h24.04v95.29h-25.8
			l-21.11-42.66l-9.09-21.26h-0.59c1.17,10.85,3.23,24.63,3.23,36.36v27.56h-24.04V263z"/>
		<path class="st0" d="M281.16,311.38c0-31.96,21.99-50.14,46.03-50.14c12.61,0,22.87,5.86,29.61,12.61l-13.19,16.13
			c-4.69-4.1-9.38-7.04-15.83-7.04c-11.14,0-20.82,10.26-20.82,27.56c0,17.89,8.21,27.86,20.52,27.86c7.33,0,13.19-3.81,17.3-8.21
			l13.19,15.83c-8.06,9.38-19.06,14.07-31.37,14.07C302.27,360.05,281.16,343.93,281.16,311.38z"/>
		<path class="st0" d="M371.18,263h25.22v74.18h36.07v21.11h-61.28V263z"/>
		<path class="st0" d="M448.9,263h25.22v95.29H448.9V263z"/>
		<path class="st0" d="M495.24,263h61.57v21.11h-36.36v14.95h31.08v21.11h-31.08v17.01h37.82v21.11h-63.04V263z"/>
		<path class="st0" d="M576.76,263h25.8l21.11,42.52l9.09,21.4h0.59c-1.17-10.26-3.23-24.63-3.23-36.36V263h24.04v95.29h-25.8
			l-21.11-42.66l-9.09-21.26h-0.59c1.17,10.85,3.23,24.63,3.23,36.36v27.56h-24.04V263z"/>
		<path class="st0" d="M693.48,284.11h-25.22V263h75.65v21.11h-25.21v74.18h-25.22V284.11z"/>
	</g>
	<g>
		<path class="st1" d="M420.72,467.63c63.02,0,120.43-36.01,148.06-92.27H272.67C300.29,431.63,357.7,467.63,420.72,467.63z"/>
		<path class="st1" d="M289.8,479.85c38.09,28.21,83.36,43.13,130.92,43.13s92.82-14.91,130.92-43.13
			c35.9-26.59,62.42-62.65,77-104.49h-42.38c-0.07,0.19-0.1,0.38-0.19,0.57c-28.97,65.38-93.88,107.62-165.36,107.62
			c-71.48,0-136.39-42.24-165.36-107.62c-0.08-0.19-0.12-0.38-0.19-0.57H212.8C227.39,417.2,253.9,453.26,289.8,479.85z"/>
		<path class="st1" d="M558.2,130.72c-39.38-31.52-86.92-48.18-137.48-48.18s-98.09,16.66-137.48,48.18
			c-37.25,29.81-64.03,71.33-75.81,117.23h41.03c0.05-0.2,0.07-0.41,0.13-0.61c24.13-74.99,93.3-125.37,172.12-125.37
			c78.82,0,147.99,50.38,172.12,125.37c0.06,0.2,0.08,0.41,0.13,0.61h41.03C622.23,202.05,595.44,160.52,558.2,130.72z"/>
		<path class="st1" d="M420.72,137.88c-70.38,0-132.29,44.05-155.5,110.06h311.01C553.01,181.93,491.1,137.88,420.72,137.88z"/>
		<linearGradient id="SVGID_1_" gradientUnits="userSpaceOnUse" x1="190.9996" y1="157.2864" x2="650.4447" y2="157.2864">
			<stop  offset="0" style="stop-color:#F9B233"/>
			<stop  offset="0.2548" style="stop-color:#F59E2D"/>
			<stop  offset="0.7933" style="stop-color:#EC671F"/>
			<stop  offset="1" style="stop-color:#E94E1B"/>
		</linearGradient>
		<path class="st2" d="M283.25,130.72c39.38-31.52,86.92-48.18,137.48-48.18s98.09,16.66,137.48,48.18
			c37.25,29.81,64.03,71.33,75.81,117.23h16.44c0,0,0-0.01,0-0.01c-12.08-50.8-41.31-96.84-82.3-129.64
			c-42.24-33.8-93.21-51.67-147.42-51.67S315.54,84.49,273.3,118.29c-40.99,32.81-70.22,78.85-82.3,129.64c0,0,0,0.01,0,0.01h16.44
			C219.21,202.05,246,160.52,283.25,130.72z"/>
		
			<linearGradient id="SVGID_00000130646010650529272960000009509438089147831214_" gradientUnits="userSpaceOnUse" x1="248.4706" y1="184.9596" x2="593.4813" y2="184.9596">
			<stop  offset="0" style="stop-color:#F9B233"/>
			<stop  offset="0.2548" style="stop-color:#F59E2D"/>
			<stop  offset="0.7933" style="stop-color:#EC671F"/>
			<stop  offset="1" style="stop-color:#E94E1B"/>
		</linearGradient>
		<path style="fill:url(#SVGID_00000130646010650529272960000009509438089147831214_);" d="M420.72,121.97
			c-78.82,0-147.99,50.38-172.12,125.37c-0.06,0.2-0.08,0.41-0.13,0.61h16.75c23.22-66.01,85.13-110.06,155.5-110.06
			s132.29,44.05,155.51,110.06h16.75c-0.05-0.2-0.07-0.41-0.13-0.61C568.72,172.35,499.55,121.97,420.72,121.97z"/>
		
			<linearGradient id="SVGID_00000159430720262869897430000016961039877982183841_" gradientUnits="userSpaceOnUse" x1="254.6815" y1="429.4536" x2="586.7628" y2="429.4536">
			<stop  offset="0" style="stop-color:#F9B233"/>
			<stop  offset="0.2548" style="stop-color:#F59E2D"/>
			<stop  offset="0.7933" style="stop-color:#EC671F"/>
			<stop  offset="1" style="stop-color:#E94E1B"/>
		</linearGradient>
		<path style="fill:url(#SVGID_00000159430720262869897430000016961039877982183841_);" d="M420.72,483.55
			c71.48,0,136.39-42.24,165.36-107.62c0.08-0.19,0.12-0.38,0.19-0.57h-17.49c-27.62,56.27-85.04,92.27-148.06,92.27
			s-120.43-36.01-148.05-92.27h-17.49c0.07,0.19,0.1,0.38,0.19,0.57C284.33,441.3,349.24,483.55,420.72,483.55z"/>
		
			<linearGradient id="SVGID_00000098908507148823579070000010865885411018896258_" gradientUnits="userSpaceOnUse" x1="195.5225" y1="457.1268" x2="645.9218" y2="457.1268">
			<stop  offset="0" style="stop-color:#F9B233"/>
			<stop  offset="0.2548" style="stop-color:#F59E2D"/>
			<stop  offset="0.7933" style="stop-color:#EC671F"/>
			<stop  offset="1" style="stop-color:#E94E1B"/>
		</linearGradient>
		<path style="fill:url(#SVGID_00000098908507148823579070000010865885411018896258_);" d="M551.64,479.85
			c-38.1,28.21-83.37,43.13-130.92,43.13s-92.82-14.91-130.92-43.13c-35.9-26.59-62.42-62.65-77-104.49h-16.82
			c15.21,47.11,44.37,87.66,84.35,117.28c40.85,30.26,89.4,46.26,140.39,46.26c50.99,0,99.53-16,140.39-46.26
			c39.98-29.61,69.14-70.16,84.35-117.28h-16.82C614.06,417.21,587.54,453.26,551.64,479.85z"/>
	</g>
</g>
</svg>
